# xmcd
#
# Track frame offsets:
#	150
#	24595
#	54297
#	80660
#	108277
#	131585
#	167787
#	190185
#	229645
#
# Disc length: 3549 seconds
#
# Revision: 0
# Processed by: cddbd v1.5.2PL0 Copyright (c) Steve Scherf et al.
# Submitted via: EasyCDDAExtractor 16.0.1.1
#
DISCID=6b0ddb09
DTITLE=עופר לוי - בהופעה חיה
DYEAR=1998
DGENRE=
TTITLE0=מאוהב בגשם
TTITLE1=החזירי לי את בני
TTITLE2=דרך מפתה
TTITLE3=אהבה אמיתית
TTITLE4=כל אדם מחפש אהבה
TTITLE5=מחפש את בני
TTITLE6=היום הזה ממש
TTITLE7=בטירוף היינו יחד
TTITLE8=באנדיי עלייק
EXTD=
EXTT0=
EXTT1=
EXTT2=
EXTT3=
EXTT4=
EXTT5=
EXTT6=
EXTT7=
EXTT8=
PLAYORDER=
